<svg xmlns="http://www.w3.org/2000/svg" viewBox="0 0 1600 900">
  <defs>
    <linearGradient id="sky" x1="0" y1="0" x2="0" y2="1">
      <stop offset="0%" stop-color="#6fb3e8"/>
      <stop offset="48%" stop-color="#bfe1f5"/>
      <stop offset="56%" stop-color="#e7efde"/>
      <stop offset="100%" stop-color="#4d8a53"/>
    </linearGradient>
    <linearGradient id="field" x1="0" y1="0" x2="0" y2="1">
      <stop offset="0%" stop-color="#78b871"/>
      <stop offset="100%" stop-color="#3e6f40"/>
    </linearGradient>
    <linearGradient id="track" x1="0" y1="0" x2="1" y2="0">
      <stop offset="0%" stop-color="#d6c08a" stop-opacity="0"/>
      <stop offset="18%" stop-color="#f1e5b6" stop-opacity="0.85"/>
      <stop offset="50%" stop-color="#fff4d0" stop-opacity="1"/>
      <stop offset="82%" stop-color="#f1e5b6" stop-opacity="0.85"/>
      <stop offset="100%" stop-color="#d6c08a" stop-opacity="0"/>
    </linearGradient>
    <radialGradient id="platformTop" cx="50%" cy="45%" r="60%">
      <stop offset="0%" stop-color="#d8f2d9"/>
      <stop offset="45%" stop-color="#98d59d"/>
      <stop offset="100%" stop-color="#4b9151"/>
    </radialGradient>
    <linearGradient id="platformRim" x1="0" y1="0" x2="0" y2="1">
      <stop offset="0%" stop-color="#eff9ef"/>
      <stop offset="100%" stop-color="#5d8d60"/>
    </linearGradient>
    <radialGradient id="spotlight" cx="50%" cy="50%" r="50%">
      <stop offset="0%" stop-color="#ffffff" stop-opacity="0.34"/>
      <stop offset="100%" stop-color="#ffffff" stop-opacity="0"/>
    </radialGradient>
    <radialGradient id="shadow" cx="50%" cy="50%" r="50%">
      <stop offset="0%" stop-color="#18301a" stop-opacity="0.45"/>
      <stop offset="100%" stop-color="#18301a" stop-opacity="0"/>
    </radialGradient>
  </defs>

  <rect width="1600" height="900" fill="url(#sky)"/>

  <rect x="0" y="470" width="1600" height="430" fill="url(#field)"/>
  <ellipse cx="800" cy="468" rx="760" ry="70" fill="#f6f0d2" opacity="0.9"/>
  <ellipse cx="800" cy="486" rx="780" ry="82" fill="#c6d59a" opacity="0.45"/>

  <rect x="320" y="420" width="960" height="92" rx="46" fill="url(#track)" opacity="0.95"/>
  <rect x="398" y="445" width="804" height="42" rx="21" fill="#f7f0cf" opacity="0.88"/>

  <g opacity="0.28">
    <circle cx="800" cy="466" r="52" fill="none" stroke="#ffffff" stroke-width="10"/>
    <line x1="748" y1="466" x2="852" y2="466" stroke="#ffffff" stroke-width="10"/>
    <circle cx="800" cy="466" r="16" fill="#ffffff"/>
  </g>

  <g opacity="0.26">
    <ellipse cx="230" cy="288" rx="170" ry="56" fill="#ffffff"/>
    <ellipse cx="1370" cy="270" rx="150" ry="50" fill="#ffffff"/>
    <ellipse cx="1260" cy="160" rx="110" ry="34" fill="#ffffff"/>
  </g>

  <g opacity="0.14">
    <rect x="0" y="0" width="1600" height="900" fill="url(#spotlight)"/>
  </g>

  <ellipse cx="800" cy="278" rx="180" ry="48" fill="url(#shadow)"/>
  <ellipse cx="800" cy="272" rx="154" ry="38" fill="#1e4325" opacity="0.24"/>
  <ellipse cx="800" cy="258" rx="138" ry="64" fill="url(#platformTop)"/>
  <ellipse cx="800" cy="258" rx="138" ry="64" fill="none" stroke="url(#platformRim)" stroke-width="10"/>
  <ellipse cx="800" cy="246" rx="96" ry="22" fill="#ffffff" opacity="0.18"/>

  <ellipse cx="800" cy="706" rx="274" ry="74" fill="url(#shadow)"/>
  <ellipse cx="800" cy="688" rx="240" ry="58" fill="#1f4826" opacity="0.28"/>
  <ellipse cx="800" cy="662" rx="222" ry="104" fill="url(#platformTop)"/>
  <ellipse cx="800" cy="662" rx="222" ry="104" fill="none" stroke="url(#platformRim)" stroke-width="12"/>
  <ellipse cx="800" cy="640" rx="152" ry="38" fill="#ffffff" opacity="0.18"/>

  <g opacity="0.1">
    <path d="M0 540 C280 510 520 548 800 532 C1080 518 1320 484 1600 516 L1600 900 L0 900 Z" fill="#17371e"/>
    <path d="M0 610 C260 578 520 630 800 604 C1080 578 1320 548 1600 584 L1600 900 L0 900 Z" fill="#112914"/>
  </g>

  <g opacity="0.08">
    <rect x="54" y="178" width="90" height="200" rx="20" fill="#ffffff"/>
    <rect x="1456" y="156" width="90" height="220" rx="20" fill="#ffffff"/>
    <rect x="112" y="154" width="48" height="120" rx="12" fill="#ffffff"/>
    <rect x="1392" y="132" width="48" height="120" rx="12" fill="#ffffff"/>
  </g>
</svg>
